<svg width="21" height="21" viewBox="0 0 21 21" fill="none" xmlns="http://www.w3.org/2000/svg">
<path d="M18.5938 10.5001H7.78313M3.96725 10.5001H2.40625M3.96725 10.5001C3.96725 9.99425 4.16822 9.50907 4.52594 9.15134C4.88367 8.79362 5.36885 8.59265 5.87475 8.59265C6.38065 8.59265 6.86583 8.79362 7.22356 9.15134C7.58128 9.50907 7.78225 9.99425 7.78225 10.5001C7.78225 11.006 7.58128 11.4912 7.22356 11.849C6.86583 12.2067 6.38065 12.4076 5.87475 12.4076C5.36885 12.4076 4.88367 12.2067 4.52594 11.849C4.16822 11.4912 3.96725 11.006 3.96725 10.5001ZM18.5938 16.2813H13.5642M13.5642 16.2813C13.5642 16.7873 13.3628 17.273 13.005 17.6308C12.6472 17.9886 12.1619 18.1896 11.6559 18.1896C11.15 18.1896 10.6648 17.9878 10.3071 17.6301C9.94934 17.2724 9.74837 16.7872 9.74837 16.2813M13.5642 16.2813C13.5642 15.7753 13.3628 15.2904 13.005 14.9326C12.6472 14.5748 12.1619 14.3738 11.6559 14.3738C11.15 14.3738 10.6648 14.5747 10.3071 14.9325C9.94934 15.2902 9.74837 15.7754 9.74837 16.2813M9.74837 16.2813H2.40625M18.5938 4.71902H15.8769M12.061 4.71902H2.40625M12.061 4.71902C12.061 4.21312 12.262 3.72794 12.6197 3.37022C12.9774 3.01249 13.4626 2.81152 13.9685 2.81152C14.219 2.81152 14.467 2.86086 14.6985 2.95672C14.9299 3.05258 15.1402 3.19309 15.3173 3.37022C15.4944 3.54734 15.6349 3.75763 15.7308 3.98905C15.8267 4.22048 15.876 4.46853 15.876 4.71902C15.876 4.96952 15.8267 5.21756 15.7308 5.44899C15.6349 5.68042 15.4944 5.8907 15.3173 6.06783C15.1402 6.24496 14.9299 6.38546 14.6985 6.48132C14.467 6.57718 14.219 6.62652 13.9685 6.62652C13.4626 6.62652 12.9774 6.42556 12.6197 6.06783C12.262 5.7101 12.061 5.22492 12.061 4.71902Z" stroke="white" stroke-miterlimit="10" stroke-linecap="round"/>
</svg>
