<svg width="24" height="25" viewBox="0 0 24 25" fill="none" xmlns="http://www.w3.org/2000/svg">
<path d="M20.0422 7.31994L14.2822 3.28994C12.7122 2.18994 10.3022 2.24994 8.79219 3.41994L3.78219 7.32994C2.78219 8.10994 1.99219 9.70994 1.99219 10.9699V17.8699C1.99219 20.4199 4.06219 22.4999 6.61219 22.4999H17.3922C19.9422 22.4999 22.0122 20.4299 22.0122 17.8799V11.0999C22.0122 9.74994 21.1422 8.08994 20.0422 7.31994ZM12.7522 18.4999C12.7522 18.9099 12.4122 19.2499 12.0022 19.2499C11.5922 19.2499 11.2522 18.9099 11.2522 18.4999V15.4999C11.2522 15.0899 11.5922 14.7499 12.0022 14.7499C12.4122 14.7499 12.7522 15.0899 12.7522 15.4999V18.4999Z" fill="white"/>
</svg>
