<svg width="24" height="25" viewBox="0 0 24 25" fill="none" xmlns="http://www.w3.org/2000/svg">
<path d="M8.00148 5.28192C7.95748 5.05692 8.23148 4.86892 8.44148 4.96092C9.20148 5.29292 10.5815 5.56792 11.6345 3.92892C11.6618 3.88912 11.6983 3.85656 11.741 3.83406C11.7837 3.81156 11.8312 3.7998 11.8795 3.7998C11.9277 3.7998 11.9753 3.81156 12.018 3.83406C12.0606 3.85656 12.0972 3.88912 12.1245 3.92892C13.1755 5.56792 14.5565 5.29292 15.3165 4.96092C15.5265 4.86892 15.8005 5.05692 15.7565 5.28092L15.3075 7.61792C15.3075 7.61792 15.2605 7.67192 15.1505 7.75292C15.2485 7.95692 15.3435 8.18792 15.4205 8.42892C15.8603 8.14237 16.3756 7.99329 16.9005 8.0007C17.4254 8.00811 17.9362 8.17168 18.3678 8.47054C18.7994 8.7694 19.1322 9.19002 19.3238 9.67877C19.5155 10.1675 19.5572 10.7023 19.4437 11.2148C19.3302 11.7274 19.0666 12.1945 18.6866 12.5567C18.3066 12.9189 17.8273 13.1597 17.3099 13.2484C16.7925 13.3371 16.2604 13.2698 15.7814 13.0549C15.3024 12.84 14.8983 12.4874 14.6205 12.0419C14.2698 12.4232 13.8438 12.7274 13.3693 12.9353C12.8949 13.1433 12.3825 13.2504 11.8645 13.2499C11.3463 13.2505 10.8337 13.1435 10.3591 12.9355C9.88449 12.7276 9.45828 12.4233 9.10748 12.0419C8.83041 12.4859 8.42778 12.8376 7.9506 13.0525C7.47343 13.2674 6.94319 13.3358 6.4271 13.2491C5.91101 13.1623 5.43229 12.9243 5.05162 12.5652C4.67094 12.206 4.40545 11.742 4.28879 11.2318C4.17213 10.7217 4.20955 10.1883 4.39631 9.69946C4.58306 9.21058 4.91075 8.78815 5.33784 8.4857C5.76493 8.18326 6.2722 8.01441 6.79535 8.00057C7.3185 7.98672 7.83399 8.12849 8.27648 8.40792C8.34982 8.16726 8.44548 7.93759 8.56348 7.71892C8.52332 7.68816 8.48554 7.6544 8.45048 7.61792L8.00148 5.28192ZM9.95048 8.30692L9.91448 8.37592C9.7424 8.67487 9.64135 9.00938 9.61915 9.3536C9.59695 9.69782 9.65419 10.0425 9.78644 10.3611C9.9187 10.6797 10.1224 10.9636 10.3819 11.1909C10.6414 11.4182 10.9496 11.5828 11.2828 11.6719C11.616 11.7611 11.9653 11.7725 12.3036 11.7052C12.6419 11.6378 12.9602 11.4936 13.2339 11.2837C13.5076 11.0738 13.7293 10.8037 13.882 10.4944C14.0347 10.1851 14.1143 9.84486 14.1145 9.49992C14.1145 8.77292 13.8885 8.39192 13.8275 8.30192C13.3355 8.41692 12.6975 8.49992 11.8795 8.49992C11.0725 8.49992 10.4395 8.41992 9.94948 8.30692M6.86448 8.99992C6.55755 9.00012 6.25681 9.08629 5.99635 9.24867C5.73588 9.41105 5.52611 9.64314 5.3908 9.91864C5.2555 10.1941 5.20007 10.502 5.2308 10.8074C5.26153 11.1128 5.37719 11.4035 5.56467 11.6465C5.75215 11.8895 6.00396 12.0752 6.29155 12.1824C6.57915 12.2896 6.89103 12.3142 7.19185 12.2532C7.49267 12.1922 7.77039 12.0482 7.99356 11.8375C8.21672 11.6268 8.3764 11.3578 8.45448 11.0609C8.2395 10.5952 8.12372 10.0898 8.11448 9.57692C7.9604 9.3959 7.7688 9.25054 7.55296 9.1509C7.33712 9.05127 7.10221 8.99976 6.86448 8.99992ZM16.8645 12.2859C17.1403 12.2859 17.4116 12.2165 17.6535 12.0841C17.8954 11.9517 18.1001 11.7605 18.2487 11.5282C18.3973 11.2959 18.485 11.0299 18.5038 10.7548C18.5225 10.4797 18.4718 10.2042 18.3561 9.95389C18.2405 9.70354 18.0636 9.48633 17.842 9.32227C17.6203 9.15822 17.3609 9.0526 17.0877 9.01515C16.8145 8.97769 16.5362 9.00961 16.2786 9.10796C16.021 9.20632 15.7922 9.36793 15.6135 9.57792C15.6035 10.1059 15.4835 10.6079 15.2755 11.0599C15.3678 11.4111 15.5737 11.7218 15.8612 11.9435C16.1486 12.1653 16.5014 12.2857 16.8645 12.2859ZM15.1005 13.9149C14.4905 13.7419 13.9125 13.9489 13.5175 14.2119C13.1575 14.4499 12.5755 14.7359 11.8645 14.7359C11.1535 14.7359 10.5705 14.4499 10.2115 14.2119C9.81548 13.9489 9.23848 13.7419 8.62848 13.9149C8.4685 13.9599 8.30946 14.0083 8.15148 14.0599L7.19148 14.3749C6.89517 14.4728 6.61203 14.6068 6.34848 14.7739C6.37679 14.6623 6.36568 14.5443 6.31703 14.4399C6.26838 14.3355 6.18518 14.2511 6.08148 14.2009C5.95361 14.1392 5.83146 14.0662 5.71648 13.9829C5.58959 13.8869 5.44286 13.8203 5.28699 13.7881C5.13113 13.756 4.97004 13.759 4.81548 13.7969C4.66081 13.838 4.50741 13.8837 4.35548 13.9339L3.67048 14.1589C3.25053 14.2961 2.87191 14.5368 2.56955 14.859C2.26719 15.1811 2.05085 15.5741 1.94048 16.0019L1.93348 16.0289L1.64248 18.1349C1.52948 18.9509 1.96748 19.8089 2.86248 20.0219C3.10982 20.0826 3.40448 20.1409 3.74648 20.1969C3.81136 20.2074 3.87766 20.2051 3.94162 20.1899C4.00557 20.1748 4.06592 20.1472 4.11923 20.1088C4.17253 20.0704 4.21773 20.0218 4.25226 19.9659C4.2868 19.91 4.30998 19.8478 4.32048 19.7829C4.33099 19.7181 4.32861 19.6517 4.31349 19.5878C4.29837 19.5238 4.27081 19.4635 4.23236 19.4102C4.19392 19.3569 4.14535 19.3117 4.08944 19.2771C4.03352 19.2426 3.97136 19.2194 3.90648 19.2089C3.63357 19.1658 3.36238 19.1124 3.09348 19.0489C2.78948 18.9769 2.57748 18.6749 2.63348 18.2719L2.91648 16.2229C3.05748 15.7029 3.45648 15.2829 3.98248 15.1089L4.66748 14.8839C4.80082 14.8406 4.93448 14.8006 5.06848 14.7639L5.07548 14.7659C5.09475 14.7721 5.11295 14.7812 5.12948 14.7929C5.25848 14.8859 5.43248 14.9979 5.64648 15.1009C5.71048 15.132 5.78037 15.149 5.85148 15.1509C5.30613 15.6404 4.91841 16.2808 4.73748 16.9909L4.73148 17.0169L4.39248 18.8989C4.17748 20.0959 4.80248 21.3849 6.12848 21.6949C7.30248 21.9689 9.16648 22.2499 11.8645 22.2499C14.5625 22.2499 16.4245 21.9689 17.5995 21.6949C18.9265 21.3849 19.5505 20.0949 19.3355 18.8989L18.9975 17.0169L18.9905 16.9909C18.8069 16.2708 18.4107 15.6227 17.8535 15.1309C17.973 15.1661 18.1014 15.1554 18.2135 15.1009C18.4285 14.9979 18.6025 14.8859 18.7315 14.7929C18.7495 14.7804 18.7694 14.771 18.7905 14.7649C18.9258 14.8003 19.0605 14.8403 19.1925 14.8849L19.8785 15.1089C20.4045 15.2819 20.8025 15.7029 20.9445 16.2229L21.2275 18.2719C21.2835 18.6749 21.0705 18.9769 20.7675 19.0489C20.5441 19.1036 20.2731 19.1569 19.9545 19.2089C19.8896 19.2194 19.8274 19.2426 19.7715 19.2771C19.7156 19.3117 19.667 19.3569 19.6286 19.4102C19.5902 19.4635 19.5626 19.5238 19.5475 19.5878C19.5324 19.6517 19.53 19.7181 19.5405 19.7829C19.551 19.8478 19.5742 19.91 19.6087 19.9659C19.6432 20.0218 19.6884 20.0704 19.7417 20.1088C19.795 20.1472 19.8554 20.1748 19.9193 20.1899C19.9833 20.2051 20.0496 20.2074 20.1145 20.1969C20.4558 20.1403 20.7505 20.0819 20.9985 20.0219C21.8935 19.8089 22.3315 18.9519 22.2185 18.1349L21.9265 16.0289L21.9205 16.0019C21.811 15.5737 21.5949 15.1802 21.2924 14.858C20.99 14.5358 20.6109 14.2953 20.1905 14.1589L19.5055 13.9339C19.3536 13.8837 19.2002 13.838 19.0455 13.7969C18.8909 13.759 18.7298 13.756 18.574 13.7881C18.4181 13.8203 18.2714 13.8869 18.1445 13.9829C18.0545 14.0479 17.9305 14.1279 17.7795 14.2009C17.718 14.2306 17.6632 14.2725 17.6185 14.3241C17.5738 14.3757 17.5402 14.436 17.5197 14.5011C17.4992 14.5662 17.4922 14.6348 17.4992 14.7027C17.5062 14.7706 17.5271 14.8364 17.5605 14.8959C17.2472 14.6716 16.9015 14.4963 16.5355 14.3759L15.5765 14.0599C15.4185 14.0086 15.2598 13.9599 15.1005 13.9139M14.3465 15.4599C14.5205 15.3449 14.6445 15.3429 14.6915 15.3569C14.8315 15.3969 14.9705 15.4393 15.1085 15.4839L16.0685 15.7989C16.4205 15.9135 16.7385 16.1139 16.9937 16.382C17.249 16.6502 17.4334 16.9777 17.5305 17.3349L17.8595 19.1639C17.9595 19.7229 17.6695 20.1369 17.2595 20.2329C16.2055 20.4779 14.4575 20.7489 11.8645 20.7489C9.27048 20.7489 7.52248 20.4789 6.46948 20.2329C6.05948 20.1369 5.76848 19.7229 5.86948 19.1629L6.19748 17.3349C6.29477 16.9777 6.47944 16.6504 6.73486 16.3824C6.99027 16.1144 7.30838 15.9142 7.66048 15.7999L8.62048 15.4849C8.75782 15.4396 8.89648 15.3973 9.03648 15.3579C9.08448 15.3439 9.20748 15.3459 9.38148 15.4609C9.88248 15.7939 10.7535 16.2359 11.8645 16.2359C12.9755 16.2359 13.8445 15.7939 14.3465 15.4609" fill="white"/>
</svg>
