<svg width="25" height="25" viewBox="0 0 25 25" fill="none" xmlns="http://www.w3.org/2000/svg">
<path d="M9.08848 8.26397C9.03574 8.23059 8.98405 8.19557 8.93348 8.15897C8.85073 8.09773 8.77284 8.0302 8.70048 7.95697L8.69448 7.94997L8.69148 7.94697C8.69048 7.94697 8.68948 7.94397 9.06848 7.61797L8.68948 7.94397C8.63253 7.87775 8.59391 7.79776 8.57748 7.71197L8.12748 5.37597C8.10121 5.22828 8.11809 5.07615 8.17609 4.9378C8.23408 4.79946 8.33074 4.68077 8.45448 4.59597C8.56944 4.5128 8.7038 4.46049 8.84473 4.44403C8.98566 4.42758 9.12846 4.44752 9.25948 4.50197C9.59248 4.64797 10.0245 4.76297 10.4645 4.69097C10.8815 4.62097 11.3725 4.37297 11.8315 3.65897C11.9041 3.54902 12.0029 3.45879 12.1189 3.39637C12.235 3.33394 12.3647 3.30127 12.4965 3.30127C12.6283 3.30127 12.758 3.33394 12.874 3.39637C12.9901 3.45879 13.0888 3.54902 13.1615 3.65897C13.6205 4.37297 14.1115 4.62197 14.5285 4.69097C14.9685 4.76297 15.4005 4.64797 15.7335 4.50197C15.8646 4.4472 16.0075 4.42699 16.1486 4.44327C16.2897 4.45956 16.4243 4.51179 16.5395 4.59497C16.6632 4.67997 16.7598 4.79888 16.8176 4.93741C16.8754 5.07595 16.8921 5.22822 16.8655 5.37597L16.4155 7.71197C16.3991 7.79776 16.3604 7.87775 16.3035 7.94397L16.3025 7.94597L16.3015 7.94697L16.2985 7.94997L16.2925 7.95697C16.2718 7.97962 16.2501 8.00131 16.2275 8.02197C16.174 8.07064 16.1179 8.11637 16.0595 8.15897C15.9655 8.2303 15.8405 8.30697 15.6845 8.38897C15.7025 8.44564 15.7198 8.50297 15.7365 8.56097C16.1667 8.22486 16.6904 8.0302 17.2357 8.00375C17.7809 7.97729 18.321 8.12034 18.7817 8.41323C19.2424 8.70612 19.6011 9.13449 19.8085 9.63947C20.0159 10.1445 20.0619 10.7013 19.9401 11.2334C19.8183 11.7656 19.5346 12.247 19.1282 12.6114C18.7217 12.9759 18.2124 13.2055 17.6702 13.2688C17.1279 13.3321 16.5794 13.2259 16.0999 12.9649C15.6205 12.7039 15.2336 12.3008 14.9925 11.811C14.6641 12.1845 14.2598 12.4838 13.8067 12.6888C13.3535 12.8938 12.8619 12.9999 12.3645 13C11.8669 13 11.3751 12.894 10.9218 12.689C10.4684 12.484 10.064 12.1846 9.73548 11.811C9.49437 12.3008 9.1075 12.7039 8.62804 12.9649C8.14857 13.2259 7.60004 13.3321 7.0578 13.2688C6.51556 13.2055 6.00623 12.9759 5.59978 12.6114C5.19333 12.247 4.90971 11.7656 4.78789 11.2334C4.66606 10.7013 4.71202 10.1445 4.91943 9.63947C5.12685 9.13449 5.48554 8.70612 5.94624 8.41323C6.40694 8.12034 6.94703 7.97729 7.49231 8.00375C8.03759 8.0302 8.5613 8.22486 8.99148 8.56097C9.01948 8.45964 9.05182 8.36064 9.08848 8.26397ZM10.6285 5.67697C10.1413 5.75142 9.64331 5.70471 9.17848 5.54097L9.52648 7.35397C9.57948 7.39197 9.65748 7.44397 9.76648 7.49997C9.83497 7.50006 9.9027 7.51422 9.96549 7.54157C10.0283 7.56893 10.0848 7.60888 10.1315 7.65897C10.6015 7.83097 11.3535 7.99997 12.4965 7.99997C13.3955 7.99997 14.0515 7.89597 14.5205 7.76697C14.5778 7.65642 14.6746 7.57143 14.7917 7.52883C14.9087 7.48624 15.0375 7.48914 15.1525 7.53697C15.2625 7.48563 15.3676 7.42437 15.4665 7.35397L15.8155 5.54097C15.3507 5.70471 14.8527 5.75142 14.3655 5.67697C13.7095 5.56897 13.0555 5.20497 12.4965 4.45397C11.9385 5.20497 11.2835 5.56897 10.6275 5.67697M10.0035 8.67197C9.86981 9.05358 9.83069 9.46192 9.88948 9.86197C9.92748 9.9873 9.95682 10.116 9.97748 10.248C10.1371 10.7561 10.4548 11.2 10.8842 11.515C11.3137 11.83 11.8325 11.9997 12.3651 11.9994C12.8977 11.9991 13.4163 11.8287 13.8453 11.5131C14.2744 11.1976 14.5915 10.7533 14.7505 10.245C14.7705 10.115 14.7992 9.98864 14.8365 9.86597C14.8925 9.48934 14.8617 9.10489 14.7465 8.74197C14.1865 8.89197 13.4505 8.99997 12.4965 8.99997C11.3965 8.99997 10.5875 8.85597 10.0035 8.67197ZM15.8115 10.102C15.7908 10.222 15.7642 10.3396 15.7315 10.455C15.7248 10.5163 15.7215 10.579 15.7215 10.643C15.7224 11.0549 15.8781 11.4515 16.1576 11.7542C16.4372 12.0568 16.8202 12.2433 17.2308 12.2769C17.6414 12.3104 18.0496 12.1884 18.3745 11.9351C18.6995 11.6819 18.9174 11.3158 18.9851 10.9094C19.0529 10.503 18.9654 10.0861 18.7402 9.74109C18.515 9.39613 18.1684 9.14837 17.7691 9.04691C17.3698 8.94545 16.947 8.99769 16.5844 9.19329C16.2218 9.38889 15.946 9.71256 15.8115 10.102ZM8.99648 10.46C8.96362 10.3413 8.93626 10.2212 8.91448 10.1C8.77581 9.70351 8.49065 9.37517 8.11753 9.18232C7.74441 8.98947 7.31163 8.94674 6.908 9.0629C6.50437 9.17906 6.16051 9.44531 5.94698 9.80699C5.73345 10.1687 5.66646 10.5984 5.75974 11.0079C5.85302 11.4174 6.0995 11.7757 6.4486 12.0092C6.79771 12.2428 7.22295 12.3338 7.63707 12.2637C8.05119 12.1936 8.42278 11.9677 8.67557 11.6322C8.92836 11.2968 9.04319 10.8774 8.99648 10.46ZM6.21648 13.983C6.08959 13.8869 5.94286 13.8204 5.78699 13.7882C5.63113 13.756 5.47004 13.759 5.31548 13.797C5.16096 13.8385 5.00757 13.8842 4.85548 13.934L4.17048 14.159C3.75008 14.2953 3.371 14.5358 3.06852 14.858C2.76604 15.1803 2.55 15.5738 2.44048 16.002L2.43348 16.029L2.14248 18.135C2.02948 18.951 2.46748 19.809 3.36248 20.022C3.60982 20.0826 3.90448 20.141 4.24648 20.197C4.31136 20.2075 4.37766 20.2051 4.44162 20.19C4.50557 20.1749 4.56592 20.1473 4.61923 20.1088C4.67253 20.0704 4.71773 20.0218 4.75226 19.9659C4.7868 19.91 4.80998 19.8478 4.82048 19.783C4.83099 19.7181 4.82861 19.6518 4.81349 19.5878C4.79837 19.5239 4.77081 19.4635 4.73236 19.4102C4.69392 19.3569 4.64535 19.3117 4.58944 19.2772C4.53352 19.2427 4.47136 19.2195 4.40648 19.209C4.13357 19.1659 3.86238 19.1125 3.59348 19.049C3.28948 18.977 3.07748 18.675 3.13348 18.272L3.41648 16.223C3.55748 15.703 3.95648 15.283 4.48248 15.109L5.16748 14.884C5.30082 14.8406 5.43448 14.8006 5.56848 14.764L5.57548 14.766C5.59475 14.7722 5.61295 14.7813 5.62948 14.793C5.75848 14.886 5.93248 14.998 6.14648 15.101C6.26524 15.1543 6.40013 15.1593 6.52247 15.1148C6.64482 15.0702 6.74497 14.9797 6.80163 14.8625C6.85828 14.7453 6.86698 14.6106 6.82587 14.487C6.78476 14.3635 6.69708 14.2609 6.58148 14.201C6.45361 14.1392 6.33146 14.0663 6.21648 13.983ZM18.6445 13.983C18.8705 13.819 19.1985 13.705 19.5445 13.797C19.6991 13.8383 19.8525 13.884 20.0045 13.934L20.6905 14.159C21.5455 14.44 22.2005 15.134 22.4205 16.002L22.4265 16.029L22.7185 18.135C22.8315 18.951 22.3925 19.809 21.4985 20.022C21.2512 20.0826 20.9562 20.141 20.6135 20.197C20.5486 20.2074 20.4823 20.205 20.4184 20.1898C20.3545 20.1746 20.2941 20.147 20.2409 20.1085C20.1876 20.07 20.1425 20.0214 20.108 19.9655C20.0735 19.9095 20.0504 19.8473 20.04 19.7825C20.0295 19.7176 20.032 19.6513 20.0472 19.5874C20.0623 19.5234 20.09 19.4631 20.1285 19.4099C20.1669 19.3566 20.2155 19.3115 20.2715 19.277C20.3274 19.2425 20.3896 19.2194 20.4545 19.209C20.7731 19.157 21.0441 19.1036 21.2675 19.049C21.5705 18.977 21.7835 18.675 21.7275 18.272L21.4445 16.223C21.3725 15.9637 21.2375 15.7263 21.0515 15.532C20.8655 15.3376 20.6343 15.1923 20.3785 15.109L19.6925 14.884C19.5604 14.84 19.427 14.8 19.2925 14.764L19.2895 14.765H19.2845C19.2655 14.7716 19.2476 14.781 19.2315 14.793C19.0686 14.9107 18.8956 15.0138 18.7145 15.101C18.5957 15.1543 18.4608 15.1593 18.3385 15.1148C18.2161 15.0702 18.116 14.9797 18.0593 14.8625C18.0027 14.7453 17.994 14.6106 18.0351 14.487C18.0762 14.3635 18.1639 14.2609 18.2795 14.201C18.4305 14.128 18.5545 14.048 18.6445 13.983Z" fill="#9DB2CE"/>
<path d="M15.5326 14.155C15.0166 14.009 14.5146 14.182 14.1566 14.42C13.7736 14.674 13.1426 14.986 12.3646 14.986C11.5866 14.986 10.9566 14.674 10.5746 14.42C10.2146 14.182 9.71457 14.01 9.19757 14.155C9.0409 14.199 8.88523 14.2467 8.73057 14.298L7.77057 14.613C7.21412 14.7937 6.71238 15.1121 6.31201 15.5387C5.91164 15.9653 5.62563 16.4862 5.48057 17.053L5.47657 17.07L5.13957 18.944C4.94357 20.034 5.51257 21.177 6.68657 21.451C7.84057 21.721 9.68457 22 12.3656 22C15.0466 22 16.8896 21.72 18.0436 21.451C19.2186 21.177 19.7866 20.034 19.5906 18.944L19.2536 17.07L19.2496 17.053C19.1045 16.4862 18.8185 15.9653 18.4181 15.5387C18.0178 15.1121 17.516 14.7937 16.9596 14.613L15.9996 14.298C15.8449 14.2467 15.6892 14.199 15.5326 14.155ZM14.7096 15.253C14.9196 15.113 15.1196 15.077 15.2606 15.117C15.4039 15.157 15.5462 15.2003 15.6876 15.247L16.6476 15.563C17.0408 15.6912 17.3958 15.9157 17.6801 16.2161C17.9645 16.5165 18.1692 16.8833 18.2756 17.283L18.6056 19.121C18.7256 19.786 18.3796 20.346 17.8166 20.477C16.7436 20.727 14.9766 21 12.3656 21C9.75457 21 7.98657 20.728 6.91357 20.477C6.35057 20.346 6.00357 19.786 6.12357 19.121L6.45357 17.282C6.55931 16.8816 6.76401 16.5143 7.04884 16.2138C7.33366 15.9132 7.68948 15.6891 8.08357 15.562L9.04357 15.248C9.18357 15.2013 9.32557 15.158 9.46957 15.118C9.61057 15.078 9.80957 15.113 10.0206 15.253C10.4986 15.57 11.3206 15.986 12.3656 15.986C13.4086 15.986 14.2316 15.57 14.7096 15.253Z" fill="#9DB2CE"/>
</svg>
