<svg width="18" height="18" viewBox="0 0 18 18" fill="none" xmlns="http://www.w3.org/2000/svg">
<path d="M9 1.7998C12.6529 1.7998 15.7499 4.82462 15.75 8.49414C15.75 12.2221 12.6025 14.8382 9.69531 16.6172C9.48344 16.7368 9.24375 16.7998 9 16.7998C8.75625 16.7998 8.51656 16.7368 8.30469 16.6172C5.40292 14.8209 2.25 12.235 2.25 8.49414C2.25012 4.82462 5.34715 1.7998 9 1.7998ZM9 5.7998C7.55032 5.7998 6.37511 6.97514 6.375 8.4248C6.375 9.87455 7.55025 11.0498 9 11.0498C10.4497 11.0498 11.625 9.87455 11.625 8.4248C11.6249 6.97514 10.4497 5.7998 9 5.7998Z" fill="#2F2109"/>
</svg>
