<svg width="116" height="139" viewBox="0 0 116 139" fill="none" xmlns="http://www.w3.org/2000/svg">
<g clip-path="url(#clip0_638_11194)">
<path d="M94.3789 110.86C94.5187 104.499 96.6446 98.342 100.459 93.2501V93.1901C108.078 83.385 112.206 71.3173 112.189 58.9001C112.194 44.4147 106.597 30.4885 96.5699 20.0346C86.5428 9.58074 72.8619 3.40888 58.3889 2.81006C60.6489 4.06006 62.6589 5.22006 64.3889 6.25006L69.2789 9.25006L67.6789 14.7001C66.8789 17.4001 65.8989 20.3601 64.6789 23.5301C67.3227 24.1656 69.8883 25.0912 72.3289 26.2901C79.656 29.9614 85.5311 35.996 89.0048 43.4188C92.4785 50.8415 93.348 59.2187 91.4726 67.1967C89.5972 75.1746 85.0866 82.2871 78.6696 87.3848C72.2526 92.4825 64.3042 95.2676 56.1089 95.2901C54.7721 95.2846 53.4367 95.2045 52.1089 95.0501C43.2024 94.0706 34.9698 89.8414 28.9864 83.1717C23.0031 76.502 19.6892 67.8603 19.6789 58.9001C19.6608 51.4766 21.9381 44.229 26.1989 38.1501C23.3289 36.7001 20.6889 35.2101 18.3789 33.8201L13.2789 30.7101L15.2789 25.0801C15.9589 23.0801 16.6689 20.9301 17.4389 18.5301C17.4655 18.4156 17.5058 18.3048 17.5589 18.2001C9.40623 25.9133 3.75591 35.8956 1.33901 46.8555C-1.07788 57.8153 -0.150111 69.2483 4.00228 79.675C8.15468 90.1018 15.3406 99.0425 24.6302 105.34C33.9199 111.638 44.8857 115.003 56.1089 115C58.2783 115.007 60.4459 114.876 62.5989 114.61C68.51 122.102 76.0444 128.155 84.6343 132.312C93.2243 136.469 102.646 138.623 112.189 138.61C113.349 138.61 114.479 138.61 115.599 138.52C109.508 136.897 104.124 133.305 100.286 128.304C96.4483 123.303 94.3714 117.174 94.3789 110.87" fill="#E92929"/>
<path d="M62.9266 34.44C59.9966 33 57.0866 31.54 54.1166 30.15C55.3699 27.1233 56.5666 24.0733 57.7066 21C58.8466 17.9267 59.7966 15.12 60.5566 12.58C58.8099 11.5267 56.7932 10.3767 54.5066 9.13C52.1966 7.88 49.8866 6.7 47.5066 5.54C45.1266 4.38 42.7366 3.35 40.3666 2.4C37.9966 1.45 35.7466 0.65 33.6066 0C32.4866 1.93 31.3566 4 30.2566 6.34C29.1566 8.68 28.0966 11 27.1166 13.46C26.1366 15.92 25.2166 18.38 24.4466 20.81C23.6766 23.24 22.9066 25.49 22.2266 27.51C24.5066 28.87 27.0866 30.32 30.0266 31.77C32.9666 33.22 35.8666 34.68 38.7966 36.1C37.5866 39.1 36.3666 42.1 35.2366 45.2C34.1066 48.3 33.1366 51.07 32.3966 53.62C36.5908 56.203 40.9314 58.5403 45.3966 60.62C49.9257 62.7678 54.577 64.6477 59.3266 66.25C61.7452 61.8529 63.9055 57.3185 65.7966 52.67C67.7051 48.1259 69.3479 43.4748 70.7166 38.74C68.4366 37.35 65.8266 35.93 62.9266 34.44Z" fill="white"/>
</g>
<defs>
<clipPath id="clip0_638_11194">
<rect width="115.6" height="138.6" fill="white"/>
</clipPath>
</defs>
</svg>
