<svg width="25" height="25" viewBox="0 0 25 25" fill="none" xmlns="http://www.w3.org/2000/svg">
<path d="M8.08506 3C8.08506 2.80109 8.00604 2.61032 7.86539 2.46967C7.72474 2.32902 7.53397 2.25 7.33506 2.25C7.13615 2.25 6.94538 2.32902 6.80473 2.46967C6.66408 2.61032 6.58506 2.80109 6.58506 3V4.58C5.14506 4.695 4.20106 4.977 3.50706 5.672C2.81206 6.366 2.53006 7.311 2.41406 8.75H22.2561C22.1401 7.31 21.8581 6.366 21.1631 5.672C20.4691 4.977 19.5241 4.695 18.0851 4.579V3C18.0851 2.80109 18.006 2.61032 17.8654 2.46967C17.7247 2.32902 17.534 2.25 17.3351 2.25C17.1361 2.25 16.9454 2.32902 16.8047 2.46967C16.6641 2.61032 16.5851 2.80109 16.5851 3V4.513C15.9201 4.5 15.1741 4.5 14.3351 4.5H10.3351C9.49606 4.5 8.75006 4.5 8.08506 4.513V3Z" fill="white"/>
<path fill-rule="evenodd" clip-rule="evenodd" d="M2.33594 12.5C2.33594 11.661 2.33594 10.915 2.34894 10.25H22.3229C22.3359 10.915 22.3359 11.661 22.3359 12.5V14.5C22.3359 18.271 22.3359 20.157 21.1639 21.328C19.9919 22.499 18.1069 22.5 14.3359 22.5H10.3359C6.56494 22.5 4.67894 22.5 3.50794 21.328C2.33694 20.156 2.33594 18.271 2.33594 14.5V12.5ZM17.3359 14.5C17.6012 14.5 17.8555 14.3946 18.043 14.2071C18.2306 14.0196 18.3359 13.7652 18.3359 13.5C18.3359 13.2348 18.2306 12.9804 18.043 12.7929C17.8555 12.6054 17.6012 12.5 17.3359 12.5C17.0707 12.5 16.8164 12.6054 16.6288 12.7929C16.4413 12.9804 16.3359 13.2348 16.3359 13.5C16.3359 13.7652 16.4413 14.0196 16.6288 14.2071C16.8164 14.3946 17.0707 14.5 17.3359 14.5ZM17.3359 18.5C17.6012 18.5 17.8555 18.3946 18.043 18.2071C18.2306 18.0196 18.3359 17.7652 18.3359 17.5C18.3359 17.2348 18.2306 16.9804 18.043 16.7929C17.8555 16.6054 17.6012 16.5 17.3359 16.5C17.0707 16.5 16.8164 16.6054 16.6288 16.7929C16.4413 16.9804 16.3359 17.2348 16.3359 17.5C16.3359 17.7652 16.4413 18.0196 16.6288 18.2071C16.8164 18.3946 17.0707 18.5 17.3359 18.5ZM13.3359 13.5C13.3359 13.7652 13.2306 14.0196 13.043 14.2071C12.8555 14.3946 12.6012 14.5 12.3359 14.5C12.0707 14.5 11.8164 14.3946 11.6288 14.2071C11.4413 14.0196 11.3359 13.7652 11.3359 13.5C11.3359 13.2348 11.4413 12.9804 11.6288 12.7929C11.8164 12.6054 12.0707 12.5 12.3359 12.5C12.6012 12.5 12.8555 12.6054 13.043 12.7929C13.2306 12.9804 13.3359 13.2348 13.3359 13.5ZM13.3359 17.5C13.3359 17.7652 13.2306 18.0196 13.043 18.2071C12.8555 18.3946 12.6012 18.5 12.3359 18.5C12.0707 18.5 11.8164 18.3946 11.6288 18.2071C11.4413 18.0196 11.3359 17.7652 11.3359 17.5C11.3359 17.2348 11.4413 16.9804 11.6288 16.7929C11.8164 16.6054 12.0707 16.5 12.3359 16.5C12.6012 16.5 12.8555 16.6054 13.043 16.7929C13.2306 16.9804 13.3359 17.2348 13.3359 17.5ZM7.33594 14.5C7.60115 14.5 7.85551 14.3946 8.04304 14.2071C8.23058 14.0196 8.33594 13.7652 8.33594 13.5C8.33594 13.2348 8.23058 12.9804 8.04304 12.7929C7.85551 12.6054 7.60115 12.5 7.33594 12.5C7.07072 12.5 6.81637 12.6054 6.62883 12.7929C6.44129 12.9804 6.33594 13.2348 6.33594 13.5C6.33594 13.7652 6.44129 14.0196 6.62883 14.2071C6.81637 14.3946 7.07072 14.5 7.33594 14.5ZM7.33594 18.5C7.60115 18.5 7.85551 18.3946 8.04304 18.2071C8.23058 18.0196 8.33594 17.7652 8.33594 17.5C8.33594 17.2348 8.23058 16.9804 8.04304 16.7929C7.85551 16.6054 7.60115 16.5 7.33594 16.5C7.07072 16.5 6.81637 16.6054 6.62883 16.7929C6.44129 16.9804 6.33594 17.2348 6.33594 17.5C6.33594 17.7652 6.44129 18.0196 6.62883 18.2071C6.81637 18.3946 7.07072 18.5 7.33594 18.5Z" fill="white"/>
</svg>
