<svg width="25" height="25" viewBox="0 0 25 25" fill="none" xmlns="http://www.w3.org/2000/svg">
<path d="M14.5 22.5H10.5C6.729 22.5 4.843 22.5 3.672 21.328C2.501 20.156 2.5 18.271 2.5 14.5V12.5C2.5 8.729 2.5 6.843 3.672 5.672C4.844 4.501 6.729 4.5 10.5 4.5H14.5C18.271 4.5 20.157 4.5 21.328 5.672C22.499 6.844 22.5 8.729 22.5 12.5V14.5C22.5 18.271 22.5 20.157 21.328 21.328C20.675 21.982 19.8 22.271 18.5 22.398M7.5 4.5V3M17.5 4.5V3M22 9.5H11.25M2.5 9.5H6.375" stroke="#9DB2CE" stroke-width="1.5" stroke-linecap="round"/>
<path d="M18.5 17.5C18.5 17.7652 18.3946 18.0196 18.2071 18.2071C18.0196 18.3946 17.7652 18.5 17.5 18.5C17.2348 18.5 16.9804 18.3946 16.7929 18.2071C16.6054 18.0196 16.5 17.7652 16.5 17.5C16.5 17.2348 16.6054 16.9804 16.7929 16.7929C16.9804 16.6054 17.2348 16.5 17.5 16.5C17.7652 16.5 18.0196 16.6054 18.2071 16.7929C18.3946 16.9804 18.5 17.2348 18.5 17.5ZM18.5 13.5C18.5 13.7652 18.3946 14.0196 18.2071 14.2071C18.0196 14.3946 17.7652 14.5 17.5 14.5C17.2348 14.5 16.9804 14.3946 16.7929 14.2071C16.6054 14.0196 16.5 13.7652 16.5 13.5C16.5 13.2348 16.6054 12.9804 16.7929 12.7929C16.9804 12.6054 17.2348 12.5 17.5 12.5C17.7652 12.5 18.0196 12.6054 18.2071 12.7929C18.3946 12.9804 18.5 13.2348 18.5 13.5ZM13.5 17.5C13.5 17.7652 13.3946 18.0196 13.2071 18.2071C13.0196 18.3946 12.7652 18.5 12.5 18.5C12.2348 18.5 11.9804 18.3946 11.7929 18.2071C11.6054 18.0196 11.5 17.7652 11.5 17.5C11.5 17.2348 11.6054 16.9804 11.7929 16.7929C11.9804 16.6054 12.2348 16.5 12.5 16.5C12.7652 16.5 13.0196 16.6054 13.2071 16.7929C13.3946 16.9804 13.5 17.2348 13.5 17.5ZM13.5 13.5C13.5 13.7652 13.3946 14.0196 13.2071 14.2071C13.0196 14.3946 12.7652 14.5 12.5 14.5C12.2348 14.5 11.9804 14.3946 11.7929 14.2071C11.6054 14.0196 11.5 13.7652 11.5 13.5C11.5 13.2348 11.6054 12.9804 11.7929 12.7929C11.9804 12.6054 12.2348 12.5 12.5 12.5C12.7652 12.5 13.0196 12.6054 13.2071 12.7929C13.3946 12.9804 13.5 13.2348 13.5 13.5ZM8.5 17.5C8.5 17.7652 8.39464 18.0196 8.20711 18.2071C8.01957 18.3946 7.76522 18.5 7.5 18.5C7.23478 18.5 6.98043 18.3946 6.79289 18.2071C6.60536 18.0196 6.5 17.7652 6.5 17.5C6.5 17.2348 6.60536 16.9804 6.79289 16.7929C6.98043 16.6054 7.23478 16.5 7.5 16.5C7.76522 16.5 8.01957 16.6054 8.20711 16.7929C8.39464 16.9804 8.5 17.2348 8.5 17.5ZM8.5 13.5C8.5 13.7652 8.39464 14.0196 8.20711 14.2071C8.01957 14.3946 7.76522 14.5 7.5 14.5C7.23478 14.5 6.98043 14.3946 6.79289 14.2071C6.60536 14.0196 6.5 13.7652 6.5 13.5C6.5 13.2348 6.60536 12.9804 6.79289 12.7929C6.98043 12.6054 7.23478 12.5 7.5 12.5C7.76522 12.5 8.01957 12.6054 8.20711 12.7929C8.39464 12.9804 8.5 13.2348 8.5 13.5Z" fill="#9DB2CE"/>
</svg>
