<svg width="24" height="24" viewBox="0 0 24 24" fill="none" xmlns="http://www.w3.org/2000/svg">
<path d="M9.99692 3.01807C9.89843 3.01807 9.8009 2.99867 9.7099 2.96098C9.61891 2.92329 9.53623 2.86804 9.46659 2.7984C9.39694 2.72875 9.3417 2.64607 9.30401 2.55508C9.26632 2.46408 9.24692 2.36656 9.24692 2.26807C9.24692 2.16957 9.26632 2.07205 9.30401 1.98105C9.3417 1.89006 9.39694 1.80738 9.46659 1.73774C9.53623 1.66809 9.61891 1.61285 9.7099 1.57516C9.8009 1.53747 9.89843 1.51807 9.99692 1.51807H13.5329C13.7318 1.51807 13.9226 1.59708 14.0632 1.73774C14.2039 1.87839 14.2829 2.06915 14.2829 2.26807C14.2829 2.46698 14.2039 2.65774 14.0632 2.7984C13.9226 2.93905 13.7318 3.01807 13.5329 3.01807H9.99692ZM6.52692 3.47007C6.66737 3.61069 6.74626 3.80132 6.74626 4.00007C6.74626 4.19882 6.66737 4.38944 6.52692 4.53007L4.02692 7.03007C3.88474 7.16255 3.6967 7.23467 3.50239 7.23124C3.30809 7.22781 3.12271 7.1491 2.9853 7.01169C2.84788 6.87428 2.76917 6.68889 2.76574 6.49459C2.76231 6.30029 2.83444 6.11224 2.96692 5.97007L5.46692 3.47007C5.60754 3.32962 5.79817 3.25073 5.99692 3.25073C6.19567 3.25073 6.38629 3.32962 6.52692 3.47007ZM11.9969 5.75007C10.563 5.75007 9.16129 6.17527 7.96903 6.97191C6.77678 7.76855 5.84753 8.90085 5.29879 10.2256C4.75005 11.5504 4.60648 13.0081 4.88622 14.4145C5.16597 15.8208 5.85646 17.1127 6.87039 18.1266C7.88432 19.1405 9.17615 19.831 10.5825 20.1108C11.9889 20.3905 13.4466 20.2469 14.7714 19.6982C16.0961 19.1495 17.2284 18.2202 18.0251 17.028C18.8217 15.8357 19.2469 14.434 19.2469 13.0001C19.2469 12.8012 19.3259 12.6104 19.4666 12.4697C19.6072 12.3291 19.798 12.2501 19.9969 12.2501C20.1958 12.2501 20.3866 12.3291 20.5272 12.4697C20.6679 12.6104 20.7469 12.8012 20.7469 13.0001C20.7469 14.7307 20.2337 16.4224 19.2723 17.8613C18.3108 19.3002 16.9443 20.4217 15.3454 21.084C13.7465 21.7463 11.9872 21.9196 10.2899 21.5819C8.59254 21.2443 7.03344 20.411 5.80973 19.1873C4.58602 17.9635 3.75267 16.4044 3.41505 14.7071C3.07742 13.0098 3.2507 11.2504 3.91297 9.65159C4.57524 8.05273 5.69675 6.68617 7.13568 5.72471C8.57461 4.76324 10.2663 4.25007 11.9969 4.25007C12.1958 4.25007 12.3866 4.32908 12.5272 4.46974C12.6679 4.61039 12.7469 4.80115 12.7469 5.00007C12.7469 5.19898 12.6679 5.38974 12.5272 5.5304C12.3866 5.67105 12.1958 5.75007 11.9969 5.75007Z" fill="#E92929"/>
<path d="M17.1851 8.36413C17.2966 8.2198 17.3516 8.03982 17.3399 7.85784C17.3283 7.67587 17.2508 7.50437 17.1218 7.37543C16.9929 7.24649 16.8214 7.16895 16.6394 7.1573C16.4574 7.14564 16.2774 7.20069 16.1331 7.31213L12.9631 9.77713L10.8911 11.2571C10.6924 11.3994 10.527 11.5833 10.4065 11.796C10.2859 12.0086 10.2131 12.245 10.1931 12.4886C10.1731 12.7322 10.2064 12.9772 10.2907 13.2067C10.3749 13.4362 10.5081 13.6445 10.681 13.8173C10.8539 13.9902 11.0623 14.1233 11.2918 14.2074C11.5213 14.2915 11.7664 14.3247 12.01 14.3046C12.2536 14.2845 12.4899 14.2116 12.7025 14.091C12.9151 13.9704 13.0989 13.8049 13.2411 13.6061L14.7201 11.5341L17.1851 8.36413Z" fill="#E92929"/>
</svg>
