<svg width="225" height="58" viewBox="0 0 225 58" fill="none" xmlns="http://www.w3.org/2000/svg">
<path d="M110.062 3.48016C110.386 3.52008 110.703 3.60769 111.002 3.74016C111.292 3.88258 111.561 4.06428 111.802 4.28016C112.109 4.57019 112.396 4.88092 112.662 5.21016L136.662 35.5702C136.572 34.5702 136.502 33.6602 136.452 32.7402C136.402 31.8202 136.382 30.9702 136.382 30.1602V3.41016H146.722V54.0002H140.612C139.827 54.0218 139.047 53.8788 138.322 53.5802C137.608 53.2213 136.991 52.6966 136.522 52.0502L112.702 21.9002C112.772 22.7802 112.822 23.6402 112.872 24.4902C112.922 25.3402 112.942 26.1202 112.942 26.8602V54.0002H102.602V3.41016H108.782C109.209 3.40393 109.637 3.42732 110.062 3.48016Z" fill="#E92929"/>
<path d="M166.511 3.41016H154.711V53.9602H166.511V3.41016Z" fill="#E92929"/>
<path d="M224.301 54.0002H215.211C214.318 54.0387 213.437 53.786 212.701 53.2802C212.06 52.8367 211.58 52.1984 211.331 51.4602L208.331 42.6502H189.121L186.121 51.4602C185.85 52.1651 185.381 52.7765 184.771 53.2202C184.059 53.7511 183.188 54.026 182.301 54.0002H173.141L192.731 3.41016H204.731L224.301 54.0002ZM191.831 34.6302H205.641L201.001 20.7902C200.701 19.9102 200.341 18.8802 199.941 17.6902C199.541 16.5002 199.131 15.2102 198.741 13.8202C198.371 15.2302 197.991 16.5402 197.601 17.7402C197.211 18.9402 196.831 19.9802 196.491 20.8602L191.831 34.6302Z" fill="#E92929"/>
<path d="M40.17 3.41016V12.7102H25.95V53.9602H14.22V12.7102H0V3.41016H40.17Z" fill="#E92929"/>
<g clip-path="url(#clip0_638_11219)">
<path d="M86.1866 46.3915C86.2446 43.7298 87.1273 41.1531 88.7111 39.0222V38.9971C91.8747 34.894 93.5888 29.844 93.5817 24.6478C93.5836 18.5861 91.2598 12.7584 87.0963 8.38376C82.9328 4.00911 77.2522 1.42637 71.2426 1.17578C72.181 1.69887 73.0156 2.18429 73.734 2.61532L75.7644 3.87073L75.1 6.15139C74.7679 7.28126 74.3609 8.51994 73.8544 9.84649C74.9522 10.1125 76.0174 10.4998 77.0308 11.0015C80.0732 12.5378 82.5127 15.0631 83.9551 18.1693C85.3975 21.2755 85.7585 24.7811 84.9798 28.1197C84.2011 31.4582 82.3281 34.4346 79.6637 36.5678C76.9992 38.7011 73.6988 39.8665 70.2959 39.8759C69.7408 39.8737 69.1863 39.8401 68.635 39.7755C64.9368 39.3656 61.5184 37.5958 59.034 34.8048C56.5495 32.0137 55.1735 28.3974 55.1693 24.6478C55.1618 21.5413 56.1073 18.5084 57.8765 15.9645C56.6848 15.3577 55.5886 14.7342 54.6295 14.1525L52.5118 12.8511L53.3423 10.4951C53.6246 9.65818 53.9194 8.75847 54.2391 7.75414C54.2502 7.70625 54.2669 7.65989 54.289 7.61604C50.9038 10.8438 48.5576 15.0211 47.5541 19.6075C46.5505 24.1939 46.9358 28.9782 48.6599 33.3415C50.3841 37.7048 53.3679 41.4462 57.2252 44.0817C61.0825 46.7171 65.6357 48.1253 70.2959 48.124C71.1967 48.1267 72.0967 48.0722 72.9907 47.9608C75.4451 51.0959 78.5736 53.6288 82.1404 55.3685C85.7071 57.1082 89.6192 58.0094 93.5817 58.0041C94.0634 58.0041 94.5326 58.0041 94.9976 57.9664C92.4684 57.2871 90.233 55.7841 88.6394 53.6913C87.0458 51.5986 86.1834 49.0337 86.1866 46.3957" fill="#E92929"/>
<path d="M73.1262 14.4121C71.9096 13.8095 70.7013 13.1986 69.4681 12.6169C69.9885 11.3503 70.4854 10.074 70.9587 8.78788C71.4321 7.50178 71.8266 6.32727 72.1421 5.26436C71.4169 4.82357 70.5795 4.34233 69.63 3.82063C68.6709 3.29755 67.7117 2.80375 66.7234 2.31833C65.7352 1.8329 64.7428 1.40188 63.7587 1.00433C62.7747 0.606782 61.8404 0.272006 60.9518 0C60.4868 0.807648 60.0176 1.67388 59.5608 2.6531C59.1041 3.63232 58.6639 4.60317 58.257 5.63261C57.8501 6.66205 57.4681 7.69149 57.1484 8.70837C56.8286 9.72525 56.5089 10.6668 56.2266 11.5121C57.1733 12.0812 58.2446 12.688 59.4653 13.2948C60.6861 13.9016 61.8902 14.5126 63.1068 15.1068C62.6044 16.3622 62.0978 17.6176 61.6286 18.9149C61.1594 20.2121 60.7567 21.3713 60.4494 22.4384C62.1909 23.5193 63.9933 24.4974 65.8473 25.3677C67.7279 26.2665 69.6593 27.0532 71.6314 27.7237C72.6357 25.8836 73.5327 23.9861 74.3179 22.0408C75.1104 20.1393 75.7925 18.1929 76.3608 16.2115C75.4141 15.6299 74.3304 15.0356 73.1262 14.4121Z" fill="#0B0B26"/>
</g>
<defs>
<clipPath id="clip0_638_11219">
<rect width="48" height="58" fill="white" transform="translate(47)"/>
</clipPath>
</defs>
</svg>
